# xmcd
#
# Track frame offsets: 
#        150
#        5934
#        22409
#        38974
#        70708
#        82111
#        84508
#        109828
#        115231
#        130486
#
# Disc length: 1918 seconds
#
# Revision: 0
# Processed by: cddbd v1.4PL0 Copyright (c) Steve Scherf et al.
# Submitted via: ExactAudioCopy v0.90b4
#
DISCID=8d077c0a
DTITLE=Fred Tuttle - Fred Speaks
DYEAR=1999
DGENRE=Other
TTITLE0=Corned Beef and Potatoes
TTITLE1=Young Fred
TTITLE2=Tunbridge Fair
TTITLE3=Ernest, Kermit and Fred
TTITLE4=Sap Beer Recipe
TTITLE5=How Many Tits on a Cow
TTITLE6=WWII
TTITLE7=Mill Bridge
TTITLE8=Modern Times
TTITLE9=White Christmas
EXTD=
EXTT0=
EXTT1=
EXTT2=
EXTT3=
EXTT4=
EXTT5=
EXTT6=
EXTT7=
EXTT8=
EXTT9=
PLAYORDER=
